<mxfile host="Electron" modified="2024-01-30T20:05:27.901Z" agent="Mozilla/5.0 (Windows NT 10.0; Win64; x64) AppleWebKit/537.36 (KHTML, like Gecko) draw.io/22.1.2 Chrome/114.0.5735.289 Electron/25.9.4 Safari/537.36" etag="zTagoiqfEe48kGStMgqu" version="22.1.2" type="device">
  <diagram name="Pagina-1" id="RSHBfIMpOffrro7l3Vwa">
    <mxGraphModel dx="1687" dy="993" grid="1" gridSize="10" guides="1" tooltips="1" connect="1" arrows="1" fold="1" page="1" pageScale="1" pageWidth="1654" pageHeight="1169" math="0" shadow="0">
      <root>
        <mxCell id="0" />
        <mxCell id="1" parent="0" />
        <mxCell id="ah_cLngfnBNbMHacUlx5-16" value="" style="shape=actor;whiteSpace=wrap;html=1;" vertex="1" parent="1">
          <mxGeometry x="1510" y="50" width="20" height="30" as="geometry" />
        </mxCell>
        <mxCell id="ah_cLngfnBNbMHacUlx5-15" value="" style="shape=actor;whiteSpace=wrap;html=1;" vertex="1" parent="1">
          <mxGeometry x="1530" y="50" width="20" height="30" as="geometry" />
        </mxCell>
        <mxCell id="ah_cLngfnBNbMHacUlx5-18" value="" style="shape=actor;whiteSpace=wrap;html=1;" vertex="1" parent="1">
          <mxGeometry x="1550" y="50" width="20" height="30" as="geometry" />
        </mxCell>
        <mxCell id="ah_cLngfnBNbMHacUlx5-1" value="userPrevision" style="shape=process;whiteSpace=wrap;html=1;backgroundOutline=1;" vertex="1" parent="1">
          <mxGeometry x="120" y="50" width="170" height="50" as="geometry" />
        </mxCell>
        <mxCell id="ah_cLngfnBNbMHacUlx5-2" value="sqlOperationList" style="shape=process;whiteSpace=wrap;html=1;backgroundOutline=1;" vertex="1" parent="1">
          <mxGeometry x="310" y="50" width="170" height="50" as="geometry" />
        </mxCell>
        <mxCell id="ah_cLngfnBNbMHacUlx5-3" value="mongoInput" style="shape=process;whiteSpace=wrap;html=1;backgroundOutline=1;" vertex="1" parent="1">
          <mxGeometry x="500" y="50" width="170" height="50" as="geometry" />
        </mxCell>
        <mxCell id="ah_cLngfnBNbMHacUlx5-4" value="openWeather" style="shape=process;whiteSpace=wrap;html=1;backgroundOutline=1;" vertex="1" parent="1">
          <mxGeometry x="690" y="50" width="170" height="50" as="geometry" />
        </mxCell>
        <mxCell id="ah_cLngfnBNbMHacUlx5-5" value="telegramBotConstructor" style="shape=process;whiteSpace=wrap;html=1;backgroundOutline=1;" vertex="1" parent="1">
          <mxGeometry x="1070" y="50" width="170" height="50" as="geometry" />
        </mxCell>
        <mxCell id="ah_cLngfnBNbMHacUlx5-6" value="" style="endArrow=none;dashed=1;html=1;dashPattern=1 3;strokeWidth=2;rounded=0;entryX=0.5;entryY=1;entryDx=0;entryDy=0;" edge="1" parent="1" target="ah_cLngfnBNbMHacUlx5-1">
          <mxGeometry width="50" height="50" relative="1" as="geometry">
            <mxPoint x="200" y="810" as="sourcePoint" />
            <mxPoint x="240" y="170" as="targetPoint" />
          </mxGeometry>
        </mxCell>
        <mxCell id="ah_cLngfnBNbMHacUlx5-7" value="" style="endArrow=none;dashed=1;html=1;dashPattern=1 3;strokeWidth=2;rounded=0;entryX=0.5;entryY=1;entryDx=0;entryDy=0;" edge="1" parent="1" target="ah_cLngfnBNbMHacUlx5-2">
          <mxGeometry width="50" height="50" relative="1" as="geometry">
            <mxPoint x="390" y="810" as="sourcePoint" />
            <mxPoint x="405" y="100" as="targetPoint" />
          </mxGeometry>
        </mxCell>
        <mxCell id="ah_cLngfnBNbMHacUlx5-8" value="" style="endArrow=none;dashed=1;html=1;dashPattern=1 3;strokeWidth=2;rounded=0;entryX=0.5;entryY=1;entryDx=0;entryDy=0;" edge="1" parent="1" target="ah_cLngfnBNbMHacUlx5-3">
          <mxGeometry width="50" height="50" relative="1" as="geometry">
            <mxPoint x="580" y="810" as="sourcePoint" />
            <mxPoint x="597.5" y="100" as="targetPoint" />
          </mxGeometry>
        </mxCell>
        <mxCell id="ah_cLngfnBNbMHacUlx5-9" value="" style="endArrow=none;dashed=1;html=1;dashPattern=1 3;strokeWidth=2;rounded=0;entryX=0.5;entryY=1;entryDx=0;entryDy=0;" edge="1" parent="1" target="ah_cLngfnBNbMHacUlx5-4">
          <mxGeometry width="50" height="50" relative="1" as="geometry">
            <mxPoint x="770" y="810" as="sourcePoint" />
            <mxPoint x="787.5" y="100" as="targetPoint" />
          </mxGeometry>
        </mxCell>
        <mxCell id="ah_cLngfnBNbMHacUlx5-10" value="" style="endArrow=none;dashed=1;html=1;dashPattern=1 3;strokeWidth=2;rounded=0;entryX=0.5;entryY=1;entryDx=0;entryDy=0;" edge="1" parent="1">
          <mxGeometry width="50" height="50" relative="1" as="geometry">
            <mxPoint x="1152.5" y="810" as="sourcePoint" />
            <mxPoint x="1157.5" y="100" as="targetPoint" />
          </mxGeometry>
        </mxCell>
        <mxCell id="ah_cLngfnBNbMHacUlx5-11" value="telegramBotWriter" style="shape=process;whiteSpace=wrap;html=1;backgroundOutline=1;" vertex="1" parent="1">
          <mxGeometry x="1260" y="50" width="170" height="50" as="geometry" />
        </mxCell>
        <mxCell id="ah_cLngfnBNbMHacUlx5-12" value="" style="endArrow=none;dashed=1;html=1;dashPattern=1 3;strokeWidth=2;rounded=0;entryX=0.5;entryY=1;entryDx=0;entryDy=0;" edge="1" parent="1">
          <mxGeometry width="50" height="50" relative="1" as="geometry">
            <mxPoint x="1342.5" y="810" as="sourcePoint" />
            <mxPoint x="1347.5" y="100" as="targetPoint" />
          </mxGeometry>
        </mxCell>
        <mxCell id="ah_cLngfnBNbMHacUlx5-14" value="" style="shape=actor;whiteSpace=wrap;html=1;" vertex="1" parent="1">
          <mxGeometry x="1520" y="60" width="20" height="30" as="geometry" />
        </mxCell>
        <mxCell id="ah_cLngfnBNbMHacUlx5-17" value="" style="shape=actor;whiteSpace=wrap;html=1;" vertex="1" parent="1">
          <mxGeometry x="1540" y="60" width="20" height="30" as="geometry" />
        </mxCell>
        <mxCell id="ah_cLngfnBNbMHacUlx5-19" value="" style="endArrow=none;dashed=1;html=1;dashPattern=1 3;strokeWidth=2;rounded=0;entryX=0.5;entryY=1;entryDx=0;entryDy=0;" edge="1" parent="1">
          <mxGeometry width="50" height="50" relative="1" as="geometry">
            <mxPoint x="1540" y="810" as="sourcePoint" />
            <mxPoint x="1540" y="90" as="targetPoint" />
          </mxGeometry>
        </mxCell>
        <mxCell id="ah_cLngfnBNbMHacUlx5-20" value="" style="shape=flexArrow;endArrow=classic;html=1;rounded=0;endWidth=23.428571428571427;endSize=8.045714285714286;width=24.571428571428573;" edge="1" parent="1">
          <mxGeometry width="50" height="50" relative="1" as="geometry">
            <mxPoint x="210" y="180" as="sourcePoint" />
            <mxPoint x="390" y="180" as="targetPoint" />
          </mxGeometry>
        </mxCell>
        <mxCell id="ah_cLngfnBNbMHacUlx5-26" value="Text" style="edgeLabel;html=1;align=center;verticalAlign=middle;resizable=0;points=[];" vertex="1" connectable="0" parent="ah_cLngfnBNbMHacUlx5-20">
          <mxGeometry x="0.0714" y="-1" relative="1" as="geometry">
            <mxPoint x="-7" as="offset" />
          </mxGeometry>
        </mxCell>
        <mxCell id="ah_cLngfnBNbMHacUlx5-27" value="Richiesta constraints giornaliera" style="edgeLabel;html=1;align=center;verticalAlign=middle;resizable=0;points=[];" vertex="1" connectable="0" parent="ah_cLngfnBNbMHacUlx5-20">
          <mxGeometry x="0.0016" relative="1" as="geometry">
            <mxPoint as="offset" />
          </mxGeometry>
        </mxCell>
        <mxCell id="ah_cLngfnBNbMHacUlx5-28" value="" style="shape=flexArrow;endArrow=classic;html=1;rounded=0;endWidth=23.428571428571427;endSize=8.045714285714286;width=24.571428571428573;" edge="1" parent="1">
          <mxGeometry width="50" height="50" relative="1" as="geometry">
            <mxPoint x="400" y="230" as="sourcePoint" />
            <mxPoint x="580" y="230" as="targetPoint" />
          </mxGeometry>
        </mxCell>
        <mxCell id="ah_cLngfnBNbMHacUlx5-29" value="Text" style="edgeLabel;html=1;align=center;verticalAlign=middle;resizable=0;points=[];" vertex="1" connectable="0" parent="ah_cLngfnBNbMHacUlx5-28">
          <mxGeometry x="0.0714" y="-1" relative="1" as="geometry">
            <mxPoint x="-7" as="offset" />
          </mxGeometry>
        </mxCell>
        <mxCell id="ah_cLngfnBNbMHacUlx5-30" value="Cancellazione vecchie previsioni" style="edgeLabel;html=1;align=center;verticalAlign=middle;resizable=0;points=[];" vertex="1" connectable="0" parent="ah_cLngfnBNbMHacUlx5-28">
          <mxGeometry x="0.0016" relative="1" as="geometry">
            <mxPoint as="offset" />
          </mxGeometry>
        </mxCell>
        <mxCell id="ah_cLngfnBNbMHacUlx5-31" value="" style="shape=flexArrow;endArrow=classic;html=1;rounded=0;endWidth=23.428571428571427;endSize=8.045714285714286;width=24.571428571428573;" edge="1" parent="1">
          <mxGeometry width="50" height="50" relative="1" as="geometry">
            <mxPoint x="400" y="310" as="sourcePoint" />
            <mxPoint x="770" y="310" as="targetPoint" />
          </mxGeometry>
        </mxCell>
        <mxCell id="ah_cLngfnBNbMHacUlx5-32" value="Text" style="edgeLabel;html=1;align=center;verticalAlign=middle;resizable=0;points=[];" vertex="1" connectable="0" parent="ah_cLngfnBNbMHacUlx5-31">
          <mxGeometry x="0.0714" y="-1" relative="1" as="geometry">
            <mxPoint x="-7" as="offset" />
          </mxGeometry>
        </mxCell>
        <mxCell id="ah_cLngfnBNbMHacUlx5-33" value="Richiesta nuove previsioni" style="edgeLabel;html=1;align=center;verticalAlign=middle;resizable=0;points=[];" vertex="1" connectable="0" parent="ah_cLngfnBNbMHacUlx5-31">
          <mxGeometry x="0.0016" relative="1" as="geometry">
            <mxPoint as="offset" />
          </mxGeometry>
        </mxCell>
        <mxCell id="ah_cLngfnBNbMHacUlx5-34" value="" style="shape=flexArrow;endArrow=none;html=1;rounded=0;endWidth=23.428571428571427;endSize=8.045714285714286;width=24.571428571428573;endFill=0;startArrow=block;" edge="1" parent="1">
          <mxGeometry width="50" height="50" relative="1" as="geometry">
            <mxPoint x="590" y="390" as="sourcePoint" />
            <mxPoint x="770" y="390" as="targetPoint" />
          </mxGeometry>
        </mxCell>
        <mxCell id="ah_cLngfnBNbMHacUlx5-35" value="Text" style="edgeLabel;html=1;align=center;verticalAlign=middle;resizable=0;points=[];" vertex="1" connectable="0" parent="ah_cLngfnBNbMHacUlx5-34">
          <mxGeometry x="0.0714" y="-1" relative="1" as="geometry">
            <mxPoint x="-7" as="offset" />
          </mxGeometry>
        </mxCell>
        <mxCell id="ah_cLngfnBNbMHacUlx5-36" value="Risultato previsioni" style="edgeLabel;html=1;align=center;verticalAlign=middle;resizable=0;points=[];" vertex="1" connectable="0" parent="ah_cLngfnBNbMHacUlx5-34">
          <mxGeometry x="0.0016" relative="1" as="geometry">
            <mxPoint as="offset" />
          </mxGeometry>
        </mxCell>
        <mxCell id="ah_cLngfnBNbMHacUlx5-37" value="mongoOutput" style="shape=process;whiteSpace=wrap;html=1;backgroundOutline=1;" vertex="1" parent="1">
          <mxGeometry x="880" y="50" width="170" height="50" as="geometry" />
        </mxCell>
        <mxCell id="ah_cLngfnBNbMHacUlx5-38" value="" style="endArrow=none;dashed=1;html=1;dashPattern=1 3;strokeWidth=2;rounded=0;entryX=0.5;entryY=1;entryDx=0;entryDy=0;" edge="1" parent="1">
          <mxGeometry width="50" height="50" relative="1" as="geometry">
            <mxPoint x="962.5" y="810" as="sourcePoint" />
            <mxPoint x="967.5" y="100" as="targetPoint" />
          </mxGeometry>
        </mxCell>
        <mxCell id="ah_cLngfnBNbMHacUlx5-39" value="" style="shape=flexArrow;endArrow=none;html=1;rounded=0;endWidth=23.428571428571427;endSize=8.045714285714286;width=24.571428571428573;startArrow=block;endFill=0;" edge="1" parent="1">
          <mxGeometry width="50" height="50" relative="1" as="geometry">
            <mxPoint x="210" y="390" as="sourcePoint" />
            <mxPoint x="390" y="390" as="targetPoint" />
          </mxGeometry>
        </mxCell>
        <mxCell id="ah_cLngfnBNbMHacUlx5-40" value="Text" style="edgeLabel;html=1;align=center;verticalAlign=middle;resizable=0;points=[];" vertex="1" connectable="0" parent="ah_cLngfnBNbMHacUlx5-39">
          <mxGeometry x="0.0714" y="-1" relative="1" as="geometry">
            <mxPoint x="-7" as="offset" />
          </mxGeometry>
        </mxCell>
        <mxCell id="ah_cLngfnBNbMHacUlx5-41" value="Lista constraints per utente" style="edgeLabel;html=1;align=center;verticalAlign=middle;resizable=0;points=[];" vertex="1" connectable="0" parent="ah_cLngfnBNbMHacUlx5-39">
          <mxGeometry x="0.0016" relative="1" as="geometry">
            <mxPoint as="offset" />
          </mxGeometry>
        </mxCell>
        <mxCell id="ah_cLngfnBNbMHacUlx5-42" value="" style="shape=flexArrow;endArrow=classic;html=1;rounded=0;endWidth=23.428571428571427;endSize=8.045714285714286;width=24.571428571428573;" edge="1" parent="1">
          <mxGeometry width="50" height="50" relative="1" as="geometry">
            <mxPoint x="200" y="480" as="sourcePoint" />
            <mxPoint x="960" y="480" as="targetPoint" />
          </mxGeometry>
        </mxCell>
        <mxCell id="ah_cLngfnBNbMHacUlx5-43" value="Text" style="edgeLabel;html=1;align=center;verticalAlign=middle;resizable=0;points=[];" vertex="1" connectable="0" parent="ah_cLngfnBNbMHacUlx5-42">
          <mxGeometry x="0.0714" y="-1" relative="1" as="geometry">
            <mxPoint x="-7" as="offset" />
          </mxGeometry>
        </mxCell>
        <mxCell id="ah_cLngfnBNbMHacUlx5-44" value="Richiesta previsioni metereologiche in base alle liste constraint" style="edgeLabel;html=1;align=center;verticalAlign=middle;resizable=0;points=[];" vertex="1" connectable="0" parent="ah_cLngfnBNbMHacUlx5-42">
          <mxGeometry x="0.0016" relative="1" as="geometry">
            <mxPoint as="offset" />
          </mxGeometry>
        </mxCell>
        <mxCell id="ah_cLngfnBNbMHacUlx5-45" value="" style="shape=flexArrow;endArrow=none;html=1;rounded=0;endWidth=23.428571428571427;endSize=8.045714285714286;width=24.571428571428573;startArrow=block;startFill=0;endFill=0;" edge="1" parent="1">
          <mxGeometry width="50" height="50" relative="1" as="geometry">
            <mxPoint x="210" y="560" as="sourcePoint" />
            <mxPoint x="960" y="560" as="targetPoint" />
          </mxGeometry>
        </mxCell>
        <mxCell id="ah_cLngfnBNbMHacUlx5-46" value="Text" style="edgeLabel;html=1;align=center;verticalAlign=middle;resizable=0;points=[];" vertex="1" connectable="0" parent="ah_cLngfnBNbMHacUlx5-45">
          <mxGeometry x="0.0714" y="-1" relative="1" as="geometry">
            <mxPoint x="-7" as="offset" />
          </mxGeometry>
        </mxCell>
        <mxCell id="ah_cLngfnBNbMHacUlx5-47" value="Risultato richiesta previsioni metereologiche" style="edgeLabel;html=1;align=center;verticalAlign=middle;resizable=0;points=[];" vertex="1" connectable="0" parent="ah_cLngfnBNbMHacUlx5-45">
          <mxGeometry x="0.0016" relative="1" as="geometry">
            <mxPoint as="offset" />
          </mxGeometry>
        </mxCell>
        <mxCell id="ah_cLngfnBNbMHacUlx5-48" value="" style="shape=flexArrow;endArrow=classic;html=1;rounded=0;endWidth=23.428571428571427;endSize=8.045714285714286;width=24.571428571428573;" edge="1" parent="1">
          <mxGeometry width="50" height="50" relative="1" as="geometry">
            <mxPoint x="1160" y="700" as="sourcePoint" />
            <mxPoint x="1340" y="700" as="targetPoint" />
          </mxGeometry>
        </mxCell>
        <mxCell id="ah_cLngfnBNbMHacUlx5-49" value="Text" style="edgeLabel;html=1;align=center;verticalAlign=middle;resizable=0;points=[];" vertex="1" connectable="0" parent="ah_cLngfnBNbMHacUlx5-48">
          <mxGeometry x="0.0714" y="-1" relative="1" as="geometry">
            <mxPoint x="-7" as="offset" />
          </mxGeometry>
        </mxCell>
        <mxCell id="ah_cLngfnBNbMHacUlx5-50" value="Messaggi formattati" style="edgeLabel;html=1;align=center;verticalAlign=middle;resizable=0;points=[];" vertex="1" connectable="0" parent="ah_cLngfnBNbMHacUlx5-48">
          <mxGeometry x="0.0016" relative="1" as="geometry">
            <mxPoint as="offset" />
          </mxGeometry>
        </mxCell>
        <mxCell id="ah_cLngfnBNbMHacUlx5-51" value="" style="shape=flexArrow;endArrow=classic;html=1;rounded=0;endWidth=23.428571428571427;endSize=8.045714285714286;width=24.571428571428573;" edge="1" parent="1">
          <mxGeometry width="50" height="50" relative="1" as="geometry">
            <mxPoint x="1350" y="740" as="sourcePoint" />
            <mxPoint x="1530" y="740" as="targetPoint" />
          </mxGeometry>
        </mxCell>
        <mxCell id="ah_cLngfnBNbMHacUlx5-52" value="Text" style="edgeLabel;html=1;align=center;verticalAlign=middle;resizable=0;points=[];" vertex="1" connectable="0" parent="ah_cLngfnBNbMHacUlx5-51">
          <mxGeometry x="0.0714" y="-1" relative="1" as="geometry">
            <mxPoint x="-7" as="offset" />
          </mxGeometry>
        </mxCell>
        <mxCell id="ah_cLngfnBNbMHacUlx5-53" value="Invio dei messaggi" style="edgeLabel;html=1;align=center;verticalAlign=middle;resizable=0;points=[];" vertex="1" connectable="0" parent="ah_cLngfnBNbMHacUlx5-51">
          <mxGeometry x="0.0016" relative="1" as="geometry">
            <mxPoint as="offset" />
          </mxGeometry>
        </mxCell>
        <mxCell id="ah_cLngfnBNbMHacUlx5-54" value="" style="shape=flexArrow;endArrow=classic;html=1;rounded=0;endWidth=23.428571428571427;endSize=8.045714285714286;width=24.571428571428573;" edge="1" parent="1">
          <mxGeometry width="50" height="50" relative="1" as="geometry">
            <mxPoint x="210" y="640" as="sourcePoint" />
            <mxPoint x="1150" y="640" as="targetPoint" />
          </mxGeometry>
        </mxCell>
        <mxCell id="ah_cLngfnBNbMHacUlx5-55" value="Text" style="edgeLabel;html=1;align=center;verticalAlign=middle;resizable=0;points=[];" vertex="1" connectable="0" parent="ah_cLngfnBNbMHacUlx5-54">
          <mxGeometry x="0.0714" y="-1" relative="1" as="geometry">
            <mxPoint x="-7" as="offset" />
          </mxGeometry>
        </mxCell>
        <mxCell id="ah_cLngfnBNbMHacUlx5-56" value="Liste risultati previsioni" style="edgeLabel;html=1;align=center;verticalAlign=middle;resizable=0;points=[];" vertex="1" connectable="0" parent="ah_cLngfnBNbMHacUlx5-54">
          <mxGeometry x="0.0016" relative="1" as="geometry">
            <mxPoint as="offset" />
          </mxGeometry>
        </mxCell>
      </root>
    </mxGraphModel>
  </diagram>
</mxfile>
